<?xml version="1.0" encoding="UTF-8"?>
<!DOCTYPE svg PUBLIC "-//W3C//DTD SVG 1.1//EN" "http://www.w3.org/Graphics/SVG/1.1/DTD/svg11.dtd">
<!-- Creator: CorelDRAW 2018 (64-Bit) -->
<svg xmlns="http://www.w3.org/2000/svg" xml:space="preserve" width="42.3332mm" height="42.3332mm" version="1.1" style="shape-rendering:geometricPrecision; text-rendering:geometricPrecision; image-rendering:optimizeQuality; fill-rule:evenodd; clip-rule:evenodd"
viewBox="0 0 4233.32 4233.32"
 xmlns:xlink="http://www.w3.org/1999/xlink">
 <defs>
  <style type="text/css">
   <![CDATA[
    .fil0 {fill:#1E88E5}
   ]]>
  </style>
 </defs>
 <g id="Слой_x0020_1">
  <metadata id="CorelCorpID_0Corel-Layer"/>
  <g id="_1820225107072">
   <polygon class="fil0" points="766.86,2747.67 882.36,2747.16 879.74,2326.95 3075.84,2337.19 3075.84,2706.63 3198.97,2706.63 3198.97,2532.18 3237.49,2462.91 3281.1,2409.02 3547.93,2409.02 3619.74,2326.95 3824.99,2326.95 3824.99,2224.31 171.65,2224.31 171.65,2316.67 346.12,2326.95 438.48,2398.76 704.73,2410.43 737.7,2480.89 756.6,2583.5 "/>
   <path class="fil0" d="M1464.84 964.27c-508.05,139.7 -523.93,1062.71 170.87,1084.97 86.98,2.76 203.82,-22.4 312.91,-50.69l0 -441.27 -123.15 0c-27.46,14.26 -61.96,39.49 -121.98,23.42 -147.31,-39.66 -122.22,-225.59 -165.35,-218.41 -66.35,11.05 -105.47,301.41 164.19,328.39l123.14 -20.53 0 297.61c-92.36,30.79 -174.46,30.79 -277.07,10.25 -297.62,-82.08 -400.23,-790.17 -51.32,-944.1 71.85,-20.53 143.67,-20.53 215.5,-10.28 82.11,41.07 174.47,143.68 184.72,246.3l30.79 0 0 -236.02c-150.13,-100.14 -289.08,-71.02 -463.25,-69.64z"/>
   <polygon class="fil0" points="1999.94,982.59 2190.57,982.47 2164.12,1044.17 2164.12,1967.76 2184.66,2029.33 1999.94,2029.33 2020.45,1967.76 2020.45,1044.17 "/>
   <path class="fil0" d="M2389.89 982.59l388.72 0c-152.69,30.79 -193.73,41.04 -193.73,164.19 -20.53,92.35 115.78,116.75 123.14,71.85l3.38 -20.53 17.13 0 0 102.61c-229.07,12.07 -197.13,-142.58 -215.51,-133.39 -20.49,10.25 -39.19,40.96 -60.14,66.32l-165.61 200.49 0 61.58 559.88 533.63 -279.72 0c48.05,-10.67 78.69,-25.8 48.24,-82.11l-410.51 -431.02 0 -102.61c82.11,-102.61 153.93,-174.47 246.3,-266.82l0 -112.87c-10.25,-30.79 -30.79,-41.06 -61.57,-51.32z"/>
  </g>
 </g>
</svg>
